<svg width="12" height="10" viewBox="0 0 12 10" fill="none" xmlns="http://www.w3.org/2000/svg">
<path d="M8.50816 6.99326C8.50779 6.95053 8.52384 6.90933 8.55293 6.87813L9.41085 6.02022L10.2644 5.16667H9.05729H3.99996C3.95576 5.16667 3.91336 5.14911 3.88211 5.11785C3.85085 5.0866 3.83329 5.04421 3.83329 5C3.83329 4.9558 3.85085 4.91341 3.88211 4.88215C3.91336 4.8509 3.95576 4.83334 3.99996 4.83334H9.05729H10.2644L9.41085 3.97978L8.54885 3.11778L8.5489 3.11773L8.54265 3.11169C8.52673 3.09632 8.51403 3.07793 8.5053 3.05759C8.49656 3.03726 8.49196 3.01539 8.49177 2.99326C8.49158 2.97113 8.4958 2.94918 8.50418 2.9287C8.51256 2.90822 8.52493 2.88961 8.54058 2.87396C8.55623 2.85831 8.57484 2.84593 8.59532 2.83755C8.6158 2.82917 8.63775 2.82496 8.65988 2.82515C8.68201 2.82534 8.70388 2.82994 8.72422 2.83868C8.74455 2.84741 8.76294 2.86011 8.77831 2.87603L8.77826 2.87608L8.78441 2.88222L10.7844 4.88217C10.7844 4.88219 10.7844 4.88221 10.7844 4.88222C10.8156 4.91347 10.8331 4.95583 10.8331 5C10.8331 5.04417 10.8156 5.08653 10.7844 5.11778C10.7844 5.1178 10.7844 5.11782 10.7844 5.11784L8.78851 7.11368C8.75731 7.14278 8.71611 7.15884 8.67337 7.15847C8.62967 7.15809 8.58787 7.14056 8.55697 7.10966C8.52607 7.07876 8.50854 7.03696 8.50816 6.99326ZM1.21544 0.882151C1.2467 0.850895 1.28909 0.833336 1.33329 0.833336C1.3775 0.833336 1.41989 0.850895 1.45114 0.882151C1.4824 0.913407 1.49996 0.9558 1.49996 1V9C1.49996 9.04421 1.4824 9.0866 1.45114 9.11785C1.41989 9.14911 1.3775 9.16667 1.33329 9.16667C1.28909 9.16667 1.2467 9.14911 1.21544 9.11785C1.18419 9.0866 1.16663 9.04421 1.16663 9V1C1.16663 0.9558 1.18419 0.913407 1.21544 0.882151Z" fill="#252C32" stroke="#0E73F6"/>
</svg>
