<svg width="16.000000" height="16.000000" viewBox="0 0 16 16" fill="none" xmlns="http://www.w3.org/2000/svg" xmlns:xlink="http://www.w3.org/1999/xlink">
	<desc>
			Created with Pixso.
	</desc>
	<defs/>
	<path id="Vector" d="M4 0C3.73 0 3.48 0.1 3.29 0.29C3.1 0.48 3 0.73 3 1L3 2L2 2C1.46 2 0.96 2.21 0.58 2.58C0.21 2.96 0 3.46 0 4L0 14C0 14.53 0.21 15.03 0.58 15.41C0.96 15.78 1.46 16 2 16L14 16C14.53 16 15.03 15.78 15.41 15.41C15.78 15.03 16 14.53 16 14L16 4C16 3.46 15.78 2.96 15.41 2.58C15.03 2.21 14.53 2 14 2L13 2L13 1C13 0.73 12.89 0.48 12.7 0.29C12.51 0.1 12.26 0 12 0C11.73 0 11.48 0.1 11.29 0.29C11.1 0.48 11 0.73 11 1L11 2L5 2L5 1C5 0.73 4.89 0.48 4.7 0.29C4.51 0.1 4.26 0 4 0ZM4 5C3.73 5 3.48 5.1 3.29 5.29C3.1 5.48 3 5.73 3 6C3 6.26 3.1 6.51 3.29 6.7C3.48 6.89 3.73 7 4 7L12 7C12.26 7 12.51 6.89 12.7 6.7C12.89 6.51 13 6.26 13 6C13 5.73 12.89 5.48 12.7 5.29C12.51 5.1 12.26 5 12 5L4 5Z" fill="#B0BABF" fill-opacity="1.000000" fill-rule="evenodd"/>
</svg>
