<svg width="12.012077" height="12.000000" viewBox="0 0 12.0121 12" fill="none" xmlns="http://www.w3.org/2000/svg" xmlns:xlink="http://www.w3.org/1999/xlink">
	<desc>
			Created with Pixso.
	</desc>
	<defs/>
	<path id="Vector" d="M0.29 0.3C0.48 0.11 0.73 0.01 0.99 0.01C1.26 0.01 1.51 0.11 1.7 0.3L5.99 4.59L10.29 0.3C10.38 0.2 10.49 0.13 10.61 0.08C10.73 0.02 10.87 0 11 3.76e-5C11.13 -0.01 11.26 0.02 11.39 0.07C11.51 0.12 11.62 0.19 11.71 0.29C11.81 0.38 11.88 0.49 11.93 0.62C11.98 0.74 12.01 0.87 12.01 1C12.01 1.14 11.98 1.27 11.93 1.39C11.87 1.51 11.8 1.62 11.7 1.71L7.41 6.01L11.7 10.3C11.88 10.49 11.98 10.74 11.98 11C11.98 11.27 11.88 11.52 11.69 11.7C11.5 11.89 11.25 11.99 10.99 12C10.73 12 10.48 11.9 10.29 11.71L5.99 7.42L1.7 11.71C1.51 11.9 1.26 12 1 12C0.74 11.99 0.49 11.89 0.3 11.7C0.11 11.52 0.01 11.27 0.01 11C0 10.74 0.11 10.49 0.29 10.3L4.58 6.01L0.29 1.71C0.1 1.53 0 1.27 0 1.01C0 0.74 0.1 0.49 0.29 0.3Z" fill="#B0BABF" fill-opacity="1.000000" fill-rule="evenodd"/>
</svg>
