<svg width="16.000000" height="16.000000" viewBox="0 0 16 16" fill="none" xmlns="http://www.w3.org/2000/svg" xmlns:xlink="http://www.w3.org/1999/xlink">
	<desc>
			Created with Pixso.
	</desc>
	<defs/>
	<path id="Vector" d="M16 8C16 10.12 15.15 12.15 13.65 13.65C12.15 15.15 10.12 16 8 16C5.87 16 3.84 15.15 2.34 13.65C0.84 12.15 0 10.12 0 8C0 5.87 0.84 3.84 2.34 2.34C3.84 0.84 5.87 0 8 0C10.12 0 12.15 0.84 13.65 2.34C15.15 3.84 16 5.87 16 8ZM9 4C9 4.26 8.89 4.51 8.7 4.7C8.51 4.89 8.26 5 8 5C7.73 5 7.48 4.89 7.29 4.7C7.1 4.51 7 4.26 7 4C7 3.73 7.1 3.48 7.29 3.29C7.48 3.1 7.73 3 8 3C8.26 3 8.51 3.1 8.7 3.29C8.89 3.48 9 3.73 9 4ZM7 7C6.73 7 6.48 7.1 6.29 7.29C6.1 7.48 6 7.73 6 8C6 8.26 6.1 8.51 6.29 8.7C6.48 8.89 6.73 9 7 9L7 12C7 12.26 7.1 12.51 7.29 12.7C7.48 12.89 7.73 13 8 13L9 13C9.26 13 9.51 12.89 9.7 12.7C9.89 12.51 10 12.26 10 12C10 11.73 9.89 11.48 9.7 11.29C9.51 11.1 9.26 11 9 11L9 8C9 7.73 8.89 7.48 8.7 7.29C8.51 7.1 8.26 7 8 7L7 7Z" fill="#84919A" fill-opacity="1.000000" fill-rule="evenodd"/>
</svg>
