<svg width="10.000000" height="10.000000" viewBox="0 0 10 10" fill="none" xmlns="http://www.w3.org/2000/svg" xmlns:xlink="http://www.w3.org/1999/xlink">
	<desc>
			Created with Pixso.
	</desc>
	<defs/>
	<path id="Vector" d="M5 0C5.26 0 5.51 0.1 5.7 0.29C5.89 0.48 6 0.73 6 1L6 4L9 4C9.26 4 9.51 4.1 9.7 4.29C9.89 4.48 10 4.73 10 5C10 5.26 9.89 5.51 9.7 5.7C9.51 5.89 9.26 6 9 6L6 6L6 9C6 9.26 5.89 9.51 5.7 9.7C5.51 9.89 5.26 10 5 10C4.73 10 4.48 9.89 4.29 9.7C4.1 9.51 4 9.26 4 9L4 6L1 6C0.73 6 0.48 5.89 0.29 5.7C0.1 5.51 0 5.26 0 5C0 4.73 0.1 4.48 0.29 4.29C0.48 4.1 0.73 4 1 4L4 4L4 1C4 0.73 4.1 0.48 4.29 0.29C4.48 0.1 4.73 0 5 0Z" fill="#FFFFFF" fill-opacity="1.000000" fill-rule="evenodd"/>
</svg>
