<svg width="15.987701" height="15.988480" viewBox="0 0 15.9877 15.9885" fill="none" xmlns="http://www.w3.org/2000/svg" xmlns:xlink="http://www.w3.org/1999/xlink">
	<desc>
			Created with Pixso.
	</desc>
	<defs/>
	<path id="Vector" d="M6 2C4.93 2 3.92 2.42 3.17 3.17C2.42 3.92 2 4.93 2 6C2 7.06 2.42 8.07 3.17 8.82C3.92 9.57 4.93 10 6 10C7.06 10 8.07 9.57 8.82 8.82C9.57 8.07 10 7.06 10 6C10 4.93 9.57 3.92 8.82 3.17C8.07 2.42 7.06 2 6 2ZM0 6C-0.01 5.05 0.22 4.12 0.65 3.28C1.07 2.44 1.69 1.71 2.46 1.15C3.22 0.59 4.1 0.22 5.03 0.07C5.97 -0.08 6.92 -0.01 7.82 0.28C8.72 0.57 9.54 1.06 10.21 1.73C10.88 2.39 11.39 3.2 11.69 4.1C11.99 4.99 12.07 5.95 11.93 6.88C11.79 7.81 11.43 8.7 10.89 9.47L15.7 14.29C15.88 14.48 15.99 14.73 15.98 14.99C15.98 15.25 15.88 15.51 15.69 15.69C15.5 15.88 15.25 15.98 14.99 15.98C14.73 15.99 14.48 15.88 14.29 15.7L9.47 10.89C8.57 11.53 7.52 11.9 6.42 11.98C5.32 12.06 4.22 11.83 3.24 11.33C2.26 10.82 1.44 10.06 0.87 9.12C0.3 8.18 -0.01 7.1 0 6Z" fill="#B0BABF" fill-opacity="1.000000" fill-rule="evenodd"/>
</svg>
